<?xml version="1.0" standalone="no"?>
<!DOCTYPE svg PUBLIC "-//W3C//DTD SVG 20010904//EN"
 "http://www.w3.org/TR/2001/REC-SVG-20010904/DTD/svg10.dtd">
<svg version="1.0" xmlns="http://www.w3.org/2000/svg"
 width="1280.000000pt" height="1280.000000pt" viewBox="0 0 1280.000000 1280.000000"
 preserveAspectRatio="xMidYMid meet">
<metadata>
Created by potrace 1.15, written by Peter Selinger 2001-2017
</metadata>
<g transform="translate(0.000000,1280.000000) scale(0.100000,-0.100000)"
fill="#000000" stroke="none">
<path d="M1920 6400 l0 -2950 4480 0 4480 0 0 2950 0 2950 -4480 0 -4480 0 0
-2950z m8425 2697 c-28 -19 -482 -314 -1010 -657 -528 -343 -964 -627 -969
-631 -5 -5 8 -27 30 -51 22 -24 52 -60 68 -80 16 -21 32 -38 37 -38 5 0 490
313 1079 695 588 382 1071 695 1074 695 3 0 6 -1183 6 -2630 0 -1446 -2 -2630
-5 -2630 -3 0 -584 376 -1290 835 -707 460 -1292 838 -1301 842 -11 4 -39 -18
-90 -68 -41 -40 -74 -76 -74 -80 0 -3 560 -370 1245 -815 l1245 -809 -1995 -3
c-1097 -1 -2893 -1 -3990 0 l-1995 3 1187 772 c654 425 1197 779 1208 787 19
14 17 17 -55 90 -41 42 -79 76 -83 76 -5 0 -574 -367 -1263 -815 -690 -448
-1256 -815 -1259 -815 -3 0 -5 1184 -5 2630 0 1447 3 2630 6 2630 3 0 466
-299 1028 -665 562 -365 1028 -666 1036 -669 19 -5 156 152 144 164 -5 4 -436
286 -959 625 -522 340 -959 624 -970 631 -16 12 588 14 3975 14 l3995 0 -50
-33z"/>
<path d="M5390 8064 c-19 -3 -73 -12 -120 -20 -426 -77 -803 -384 -965 -788
-62 -152 -86 -271 -92 -447 -6 -175 9 -300 54 -444 37 -118 124 -289 197 -385
41 -53 402 -422 970 -990 l906 -905 913 915 c958 961 979 983 1071 1164 314
615 94 1376 -497 1723 -441 258 -993 238 -1412 -50 l-79 -55 -36 27 c-128 101
-333 193 -515 232 -88 19 -322 32 -395 23z m1975 -290 c203 -39 370 -129 525
-284 206 -206 301 -436 301 -729 0 -221 -49 -385 -168 -571 -47 -73 -174 -204
-871 -903 l-817 -817 -811 812 c-874 876 -883 886 -959 1066 -62 147 -79 238
-79 412 0 167 16 257 71 392 132 326 440 572 785 628 113 18 341 8 443 -20
171 -46 333 -141 478 -279 l77 -74 88 84 c262 253 583 349 937 283z"/>
</g>
</svg>
